<svg xmlns="http://www.w3.org/2000/svg" viewBox="0 0 800 500" role="img" aria-labelledby="title desc">
  <title id="title">GitHub heatmap abstract cover</title>
  <desc id="desc">A restrained contribution grid on a dark green surface.</desc>
  <rect width="800" height="500" fill="#26302a"/>
  <rect x="72" y="72" width="656" height="356" rx="12" fill="#1d241f" stroke="#455248"/>
  <circle cx="112" cy="111" r="7" fill="#8ba192"/>
  <rect x="134" y="106" width="116" height="10" rx="5" fill="#738479"/>
  <g transform="translate(103 168)" fill="#344139">
    <path d="M0 0h28v28H0zM40 0h28v28H40zM80 0h28v28H80zM120 0h28v28h-28zM160 0h28v28h-28zM200 0h28v28h-28zM240 0h28v28h-28zM280 0h28v28h-28zM320 0h28v28h-28zM360 0h28v28h-28zM400 0h28v28h-28zM440 0h28v28h-28zM480 0h28v28h-28zM520 0h28v28h-28zM560 0h28v28h-28z"/>
    <path d="M0 40h28v28H0zM40 40h28v28H40zM80 40h28v28H80zM120 40h28v28h-28zM160 40h28v28h-28zM200 40h28v28h-28zM240 40h28v28h-28zM280 40h28v28h-28zM320 40h28v28h-28zM360 40h28v28h-28zM400 40h28v28h-28zM440 40h28v28h-28zM480 40h28v28h-28zM520 40h28v28h-28zM560 40h28v28h-28z"/>
    <path d="M0 80h28v28H0zM40 80h28v28H40zM80 80h28v28H80zM120 80h28v28h-28zM160 80h28v28h-28zM200 80h28v28h-28zM240 80h28v28h-28zM280 80h28v28h-28zM320 80h28v28h-28zM360 80h28v28h-28zM400 80h28v28h-28zM440 80h28v28h-28zM480 80h28v28h-28zM520 80h28v28h-28zM560 80h28v28h-28z"/>
    <path d="M0 120h28v28H0zM40 120h28v28H40zM80 120h28v28H80zM120 120h28v28h-28zM160 120h28v28h-28zM200 120h28v28h-28zM240 120h28v28h-28zM280 120h28v28h-28zM320 120h28v28h-28zM360 120h28v28h-28zM400 120h28v28h-28zM440 120h28v28h-28zM480 120h28v28h-28zM520 120h28v28h-28zM560 120h28v28h-28z"/>
  </g>
  <g fill="#789680">
    <rect x="183" y="168" width="28" height="28"/><rect x="343" y="208" width="28" height="28"/><rect x="503" y="248" width="28" height="28"/><rect x="623" y="288" width="28" height="28"/>
  </g>
  <g fill="#a5c5ad">
    <rect x="263" y="248" width="28" height="28"/><rect x="463" y="168" width="28" height="28"/><rect x="583" y="208" width="28" height="28"/>
  </g>
</svg>
